Coordinates
version=1
nRows=21
nColumns=22
inDegrees=yes

Units are S.I. units (second, meters, Newtons, ...)
If the header above contains a line with 'inDegrees', this indicates whether rotational values are in degrees (yes) or radians (no).

endheader
time	pelvis_tilt	pelvis_list	pelvis_rotation	pelvis_tx	pelvis_ty	pelvis_tz	hip_flexion_r	hip_adduction_r	hip_rotation_r	knee_angle_r	ankle_angle_r	subtalar_angle_r	hip_flexion_l	hip_adduction_l	hip_rotation_l	knee_angle_l	ankle_angle_l	subtalar_angle_l	lumbar_extension	lumbar_bending	lumbar_rotation
      0.01000000	     -7.86353628	      0.80486718	    -10.88388828	     -1.15480768	      0.88491505	     -0.09130827	     10.45937766	     -6.64553959	      6.03611677	     -7.45925985	     10.12696883	      2.89065834	      7.72552403	     -4.39947215	    -10.21337465	     -8.80349272	     12.61566451	      4.69181172	      2.87603961	     -2.01208784	     11.16159105
      0.02000000	     -7.85444138	      0.80949016	    -10.88489192	     -1.15467247	      0.88491913	     -0.09130546	     10.44810519	     -6.65404045	      6.03951453	     -7.47080185	     10.12755076	      2.89033755	      7.71379798	     -4.39250348	    -10.20930192	     -8.81560634	     12.61482924	      4.69279414	      2.89890490	     -1.99600540	     11.16199690
      0.03000000	     -7.81901788	      0.81452658	    -10.88621719	     -1.15456199	      0.88495093	     -0.09129978	     10.42581244	     -6.66533850	      6.05987817	     -7.51317562	     10.16481814	      2.88675509	      7.68368573	     -4.38086494	    -10.17898897	     -8.84472370	     12.63556954	      4.70236654	      2.88683255	     -1.98362484	     11.16163548
      0.04000000	     -7.78475960	      0.81313767	    -10.89138787	     -1.15441186	      0.88498141	     -0.09129633	     10.39839897	     -6.67054862	      6.06227111	     -7.54821407	     10.20142480	      2.88103528	      7.64909422	     -4.37562903	    -10.16174759	     -8.87035981	     12.65898562	      4.70966573	      2.87934028	     -1.95612198	     11.16311627
      0.05000000	     -7.73972638	      0.80542386	    -10.88742417	     -1.15423020	      0.88502509	     -0.09128348	     10.35510436	     -6.67084299	      6.05458278	     -7.58581040	     10.24306342	      2.86814925	      7.60260765	     -4.37536829	    -10.14895221	     -8.89911332	     12.69339543	      4.71902341	      2.86335210	     -1.92692994	     11.15770505
      0.06000000	     -7.70841482	      0.80574764	    -10.88598263	     -1.15408409	      0.88505268	     -0.09126597	     10.33193943	     -6.67536935	      6.07103779	     -7.62467277	     10.25840616	      2.86252032	      7.58213982	     -4.37087007	    -10.11563657	     -8.94295286	     12.70714110	      4.72195991	      2.86016047	     -1.90388511	     11.15937414
      0.07000000	     -7.66628263	      0.79947472	    -10.87828435	     -1.15391797	      0.88508485	     -0.09126362	     10.30147873	     -6.67620947	      6.06249465	     -7.68003937	     10.31124051	      2.84781261	      7.54967934	     -4.36999860	    -10.09130350	     -8.98923710	     12.75244500	      4.72259241	      2.84135057	     -1.87126970	     11.14603412
      0.08000000	     -7.63511534	      0.80122826	    -10.87350872	     -1.15377571	      0.88510903	     -0.09124740	     10.28476227	     -6.68027684	      6.07900316	     -7.73056808	     10.32962287	      2.84115910	      7.53262933	     -4.36318265	    -10.05718550	     -9.03796053	     12.76715801	      4.72211225	      2.83424314	     -1.84771925	     11.13973532
      0.09000000	     -7.59420418	      0.79647455	    -10.85877029	     -1.15361797	      0.88513371	     -0.09125003	     10.26550720	     -6.68194676	      6.06010347	     -7.80609580	     10.39805521	      2.82115835	      7.50644889	     -4.36091064	    -10.03091519	     -9.08972909	     12.81596357	      4.71400796	      2.81221013	     -1.81808486	     11.11674123
      0.10000000	     -7.56331711	      0.79889816	    -10.84864557	     -1.15349164	      0.88515459	     -0.09124318	     10.25627663	     -6.68688681	      6.07967363	     -7.87002681	     10.41839636	      2.81201975	      7.49137956	     -4.35314132	     -9.99747639	     -9.13717027	     12.83002035	      4.70987531	      2.79847046	     -1.79493374	     11.09684428
      0.11000000	     -7.52493663	      0.79618902	    -10.82738913	     -1.15334500	      0.88517233	     -0.09125270	     10.24821454	     -6.68980950	      6.04887905	     -7.96292945	     10.50001443	      2.78320262	      7.46924500	     -4.34848506	     -9.96831169	     -9.18664598	     12.87551433	      4.69245137	      2.77470502	     -1.76932295	     11.06391824
      0.12000000	     -7.49314148	      0.79724558	    -10.80485910	     -1.15321896	      0.88518604	     -0.09127037	     10.24604646	     -6.69518086	      6.03520128	     -8.04876451	     10.55504899	      2.75114101	      7.45346047	     -4.33933671	     -9.93340915	     -9.22967868	     12.90110461	      4.67267501	      2.75519024	     -1.74591506	     11.02713850
      0.13000000	     -7.46578039	      0.79978910	    -10.78789615	     -1.15310271	      0.88520114	     -0.09127610	     10.24519672	     -6.69957563	      6.04958220	     -8.12360991	     10.57963187	      2.73447833	      7.43812761	     -4.32996033	     -9.90614943	     -9.26474724	     12.91428476	      4.66319763	      2.73899699	     -1.72449267	     10.98709851
      0.14000000	     -7.43459001	      0.80046057	    -10.76422035	     -1.15299818	      0.88521662	     -0.09130723	     10.24680027	     -6.70487713	      6.04836080	     -8.21275832	     10.62420654	      2.71307089	      7.42101735	     -4.31998249	     -9.87711277	     -9.30000825	     12.93513396	      4.65190795	      2.71395866	     -1.70050512	     10.94237051
      0.15000000	     -7.40304729	      0.80094051	    -10.72613270	     -1.15288094	      0.88522656	     -0.09138115	     10.24993611	     -6.71464039	      5.99589844	     -8.31246540	     10.71076629	      2.66603087	      7.40439491	     -4.30580594	     -9.83833726	     -9.33279283	     12.96554329	      4.62733388	      2.68506636	     -1.67530025	     10.89580461
      0.16000000	     -7.38031841	      0.80407726	    -10.70207595	     -1.15277800	      0.88524278	     -0.09141744	     10.25117748	     -6.72114320	      6.01091912	     -8.38253224	     10.72521252	      2.64773812	      7.39098791	     -4.29347497	     -9.81628685	     -9.35595925	     12.97266274	      4.61830032	      2.66734139	     -1.65338568	     10.84492681
      0.17000000	     -7.35125271	      0.80507164	    -10.65621517	     -1.15266671	      0.88525908	     -0.09151440	     10.25133117	     -6.73299780	      5.95303261	     -8.47320617	     10.80172108	      2.59590930	      7.37577990	     -4.27654920	     -9.77390064	     -9.38214991	     12.99354861	      4.59282285	      2.63785393	     -1.62897570	     10.79469362
      0.18000000	     -7.33610406	      0.80874760	    -10.62935567	     -1.15258279	      0.88527522	     -0.09159466	     10.25350673	     -6.74330033	      5.96878287	     -8.52481966	     10.80561694	      2.58316284	      7.36737119	     -4.26144124	     -9.76324932	     -9.39330095	     12.99567917	      4.58690464	      2.62027608	     -1.60057427	     10.74918074
      0.19000000	     -7.31130201	      0.81122918	    -10.58259267	     -1.15247197	      0.88530018	     -0.09171364	     10.25103108	     -6.75857191	      5.90652383	     -8.60044861	     10.86546327	      2.53845974	      7.35393317	     -4.24186441	     -9.71941653	     -9.41432455	     13.00416513	      4.56674235	      2.59340786	     -1.57373990	     10.69194471
      0.20000000	     -7.30259532	      0.81580042	    -10.55262096	     -1.15238606	      0.88531905	     -0.09181574	     10.25300319	     -6.77095167	      5.91404856	     -8.64017726	     10.86672308	      2.52773855	      7.34778728	     -4.22498763	     -9.71580604	     -9.41542986	     13.00353553	      4.56217923	      2.58109517	     -1.54221287	     10.64597313
      0.21000000	     -7.28845171	      0.82113761	    -10.49831975	     -1.15228655	      0.88534151	     -0.09198034	     10.25311466	     -6.79269187	      5.84529392	     -8.69855337	     10.90929813	      2.49337385	      7.34377768	     -4.20105153	     -9.66956424	     -9.42631199	     12.99823427	      4.55010855	      2.56127983	     -1.51032949	     10.58211028
